<svg width="238" height="208" viewBox="0 0 238 208" fill="none" xmlns="http://www.w3.org/2000/svg">
<path d="M29.7204 27.7676H137.71V191.486C137.71 193.581 136.026 195.267 133.933 195.267C117.232 195.267 50.1988 195.267 33.4975 195.267C31.4042 195.267 29.7204 193.581 29.7204 191.486C29.7204 166.568 29.7204 27.7676 29.7204 27.7676Z" fill="#9C27B0" fill-opacity="0.04"/>
<path d="M29.7204 19.841C29.7204 17.7455 31.4042 16.0601 33.4975 16.0601C50.1988 16.0601 117.232 16.0601 133.933 16.0601C136.026 16.0601 137.71 17.7455 137.71 19.841C137.71 23.2575 137.71 27.7673 137.71 27.7673H29.7204V19.841Z" fill="#510F42"/>
<path d="M36.2282 23.121H45.1932C45.8758 23.121 46.4219 22.5744 46.4219 21.8911C46.4219 21.2078 45.8758 20.6611 45.1932 20.6611H36.2282C35.5456 20.6611 34.9995 21.2078 34.9995 21.8911C34.9995 22.5744 35.5911 23.121 36.2282 23.121Z" fill="white"/>
<path d="M54.1584 24.1685C54.4769 24.1685 54.7955 23.9863 54.932 23.7129C55.0685 23.4396 55.0685 23.0752 54.8865 22.8019C54.3404 21.9364 53.6123 20.8886 53.1117 20.0687C52.9296 19.7954 52.6566 19.6587 52.3836 19.6587C52.065 19.6587 51.792 19.7954 51.6554 20.0687C51.1548 20.8886 50.4267 21.9364 49.8806 22.8019C49.6986 23.0752 49.6986 23.4396 49.8351 23.7129C49.9717 23.9863 50.2902 24.1685 50.6088 24.1685H54.1584Z" fill="white"/>
<path d="M132.568 23.4399C131.713 23.4399 131.021 22.7465 131.021 21.8911C131.021 21.0357 131.713 20.3423 132.568 20.3423C133.423 20.3423 134.115 21.0357 134.115 21.8911C134.115 22.7465 133.423 23.4399 132.568 23.4399Z" fill="white"/>
<path d="M127.244 23.4399C126.389 23.4399 125.696 22.7465 125.696 21.8911C125.696 21.0357 126.389 20.3423 127.244 20.3423C128.098 20.3423 128.791 21.0357 128.791 21.8911C128.791 22.7465 128.098 23.4399 127.244 23.4399Z" fill="white"/>
<path d="M121.919 23.4399C121.064 23.4399 120.371 22.7465 120.371 21.8911C120.371 21.0357 121.064 20.3423 121.919 20.3423C122.773 20.3423 123.466 21.0357 123.466 21.8911C123.466 22.7465 122.773 23.4399 121.919 23.4399Z" fill="white"/>
<path d="M60.4322 23.4726C59.5777 23.4726 58.885 22.7792 58.885 21.9238C58.885 21.0684 59.5777 20.375 60.4322 20.375C61.2868 20.375 61.9795 21.0684 61.9795 21.9238C61.9795 22.7792 61.2868 23.4726 60.4322 23.4726Z" fill="white"/>
<path d="M111.816 21.0256C111.816 20.7067 111.953 20.4334 112.135 20.2056C112.363 19.9778 112.636 19.8867 112.954 19.8867H114.774C115.093 19.8867 115.366 20.0234 115.594 20.2056C115.821 20.4334 115.912 20.7067 115.912 21.0256V22.8477C115.912 23.1666 115.776 23.4399 115.594 23.6676C115.366 23.8954 115.093 23.9865 114.774 23.9865H112.954C112.636 23.9865 112.363 23.8499 112.135 23.6676C111.907 23.4399 111.816 23.1666 111.816 22.8477V21.0256Z" fill="white"/>
<path d="M130.019 200.779C130.201 200.779 130.429 200.733 130.611 200.642C131.476 200.141 131.931 199.367 132.022 199.23C132.34 198.638 132.113 197.909 131.521 197.59C130.93 197.271 130.201 197.499 129.883 198.046C129.837 198.137 129.655 198.364 129.428 198.501C128.836 198.82 128.654 199.594 128.973 200.141C129.155 200.597 129.564 200.779 130.019 200.779Z" fill="#510F42"/>
<path d="M124.649 200.779C124.831 200.779 125.059 200.733 125.241 200.642C126.106 200.141 126.561 199.367 126.652 199.23C126.97 198.638 126.743 197.909 126.151 197.59C125.559 197.271 124.831 197.499 124.513 198.046C124.467 198.137 124.285 198.364 124.058 198.501C123.466 198.82 123.284 199.594 123.603 200.141C123.785 200.597 124.194 200.779 124.649 200.779Z" fill="#510F42"/>
<path d="M119.28 200.779C119.462 200.779 119.69 200.733 119.872 200.642C120.736 200.141 121.191 199.367 121.283 199.23C121.601 198.638 121.374 197.909 120.782 197.59C120.19 197.271 119.462 197.499 119.144 198.046C119.098 198.137 118.916 198.364 118.689 198.501C118.097 198.82 117.915 199.594 118.233 200.141C118.416 200.597 118.825 200.779 119.28 200.779Z" fill="#510F42"/>
<mask id="mask0_4030_121828" style="mask-type:luminance" maskUnits="userSpaceOnUse" x="56" y="35" width="154" height="154">
<path d="M107.454 35.6353L209.746 86.3447L159.037 188.637L56.7446 137.927L107.454 35.6353Z" fill="white"/>
</mask>
<g mask="url(#mask0_4030_121828)">
<path d="M128.384 89.0301C126.517 89.1013 124.709 88.2548 123.496 86.8064C122.303 85.318 121.865 83.4062 122.34 81.5487C122.736 80.0506 123.013 78.5932 123.29 77.1357C126.336 60.1065 122.87 47.4245 122.87 47.4245C121.853 42.2856 116.885 38.9257 111.761 39.9739C106.638 41.0221 103.265 46.0282 104.282 51.1671C104.282 51.1671 105.044 60.5153 102.173 72.8969C100.906 78.3488 99.0041 84.4826 95.6719 90.6051C93.3115 94.8672 89.7403 100.074 76.9887 100.131C75.6579 100.12 74.5663 101.223 74.5475 102.559C74.4942 110.756 74.3354 136.841 74.3021 145.097C74.3224 145.755 74.5414 146.412 75.0582 146.868C75.5154 147.343 76.1909 147.579 76.8463 147.555C80.5406 147.393 87.3532 147.132 91.1468 146.969C92.7159 146.9 94.1665 147.768 94.8628 149.16C96.4541 152.241 100.371 157.522 108.793 158.408C120.891 159.671 152.452 160.117 157.199 159.729C159.94 159.493 162.243 158.641 163.692 157.117C167.346 156.536 169.868 155.943 169.868 155.943C174.893 155.792 178.882 151.54 178.72 146.476C178.638 142.947 176.55 139.968 173.549 138.531C177.879 137.687 181.093 133.798 180.971 129.252C180.889 126.122 179.218 123.4 176.774 121.84C181.441 121.313 185.033 117.262 184.891 112.457C184.768 107.911 181.329 104.263 176.999 103.711C179.142 101.983 180.491 99.2624 180.429 96.2914C180.306 91.2468 176.092 87.2641 171.047 87.4543C171.047 87.4543 167.789 86.9357 163.3 86.6041C160.917 86.4191 158.275 86.156 155.574 86.312C147.748 86.7186 140.182 88.4996 140.182 88.4996C139.566 88.5433 138.95 88.5869 138.375 88.7499C138.474 88.6496 133.27 88.8608 128.384 89.0301Z" fill="#E3A6D6"/>
<path d="M141.199 93.4392C139.054 93.5719 137.387 95.4366 137.468 97.57C137.589 99.723 139.437 101.387 141.563 101.294C143.708 101.161 143.885 99.4055 143.784 97.2124C143.703 95.0791 143.384 93.3262 141.199 93.4392Z" fill="#510F42"/>
<path d="M112.722 49.9194C112.602 47.7663 111.051 46.1006 109.303 46.2309C107.555 46.3612 106.246 48.2039 106.367 50.3569C106.488 52.5099 107.938 52.6805 109.725 52.57C111.433 52.42 112.843 52.0724 112.722 49.9194Z" fill="#510F42"/>
<path d="M141.272 109.971C139.127 110.103 137.46 111.968 137.541 114.102C137.661 116.255 139.51 117.918 141.635 117.826C143.78 117.693 143.958 115.937 143.857 113.744C143.795 111.571 143.417 109.838 141.272 109.971Z" fill="#510F42"/>
<path d="M142.455 126.555C140.31 126.688 138.643 128.553 138.724 130.686C138.805 132.819 140.694 134.503 142.819 134.41C144.964 134.278 145.141 132.522 145.04 130.329C144.979 128.155 144.6 126.423 142.455 126.555Z" fill="#510F42"/>
<path d="M141.139 144.292C138.994 144.424 137.327 146.289 137.408 148.422C137.529 150.575 139.377 152.239 141.502 152.147C143.647 152.014 143.825 150.258 143.724 148.065C143.663 145.892 143.284 144.159 141.139 144.292Z" fill="#510F42"/>
<path d="M136.978 106.547C138.189 106.5 141.923 106.357 146.73 106.149C149.828 105.99 153.364 105.849 156.879 105.648C158.925 105.516 161.01 105.404 162.957 105.272C170.722 104.786 177.157 104.288 177.157 104.288C177.515 104.266 177.753 103.986 177.733 103.627C177.713 103.268 177.435 103.03 177.077 103.053C177.077 103.053 170.622 103.291 162.856 103.677C160.89 103.749 158.804 103.862 156.759 103.994C153.243 104.195 149.708 104.436 146.629 104.654C142.061 104.981 138.427 105.222 137.076 105.35C137.036 105.33 136.996 105.311 136.957 105.291C135.546 104.641 134.334 103.592 133.479 102.321C132.663 101.069 132.126 99.557 132.085 97.9419C132.024 96.5663 132.341 95.2282 132.876 94.0484C133.432 92.8285 134.305 91.7663 135.377 90.9022C135.635 90.6813 135.734 90.2819 135.515 90.0239C135.296 89.766 134.899 89.6687 134.641 89.8897C133.39 90.8146 132.378 92.0572 131.724 93.4771C131.05 94.8372 130.733 96.3747 130.734 97.9701C130.775 99.8842 131.353 101.616 132.307 103.086C133.063 104.258 134.057 105.249 135.19 105.96C134.038 106.784 133.125 107.827 132.431 109.028C131.519 110.569 131.023 112.366 131.065 114.281C131.126 116.354 131.783 118.225 132.896 119.774C133.711 120.925 134.805 121.916 136.037 122.626C134.984 123.45 134.091 124.453 133.417 125.613C132.504 127.155 131.989 128.992 132.051 130.966C132.112 132.94 132.729 134.791 133.763 136.3C134.479 137.353 135.373 138.245 136.446 138.976C135.037 139.723 133.826 140.767 132.913 142.009C131.663 143.732 130.95 145.87 131.051 148.162C131.152 151.153 132.167 153.4 134.174 155.043C135.804 156.35 138.049 157.213 141.069 157.714C143.85 158.195 146.234 158.48 148.339 158.627C151.636 158.866 154.04 158.811 155.629 158.802C155.966 158.819 156.264 158.518 156.284 158.179C156.303 157.84 156.005 157.543 155.667 157.525C154.098 157.495 151.715 157.509 148.477 157.25C146.431 157.083 144.107 156.778 141.346 156.256C138.644 155.814 136.558 155.029 135.167 153.841C133.517 152.475 132.721 150.585 132.66 148.113C132.618 146.199 133.213 144.4 134.284 142.938C135.356 141.476 136.904 140.349 138.691 139.84C138.811 139.799 138.93 139.759 139.009 139.698C140.201 139.691 143.359 139.712 147.272 139.708C149.953 139.692 153.012 139.713 156.091 139.694C157.878 139.683 159.686 139.632 161.394 139.582C168.107 139.422 173.748 139.228 173.748 139.228C174.106 139.206 174.383 138.945 174.363 138.586C174.343 138.227 174.085 137.949 173.727 137.972C173.727 137.972 168.106 137.926 161.413 137.947C159.685 137.937 157.897 137.948 156.149 137.979C153.11 138.017 150.051 138.096 147.35 138.152C143.437 138.256 140.279 138.335 139.068 138.382C138.988 138.342 138.968 138.283 138.869 138.283C137.399 137.654 136.186 136.605 135.291 135.314C134.436 134.043 133.899 132.53 133.878 130.875C133.837 129.26 134.233 127.762 134.987 126.441C135.76 125.081 136.892 123.997 138.242 123.271C138.301 123.25 138.321 123.21 138.401 123.15C139.692 123.142 143.207 123.141 147.656 123.154C150.636 123.136 154.052 123.135 157.449 123.074C159.435 123.062 161.401 122.99 163.308 122.939C170.776 122.754 176.993 122.497 176.993 122.497C177.35 122.474 177.628 122.214 177.608 121.855C177.588 121.496 177.329 121.218 176.972 121.24C176.972 121.24 170.735 121.238 163.287 121.284C161.4 121.295 159.414 121.307 157.407 121.359C154.011 121.42 150.595 121.52 147.635 121.598C143.206 121.745 139.691 121.846 138.38 121.894C138.3 121.855 138.241 121.775 138.141 121.776C136.592 121.207 135.26 120.198 134.306 118.828C133.371 117.517 132.814 115.945 132.773 114.23C132.732 112.615 133.128 111.117 133.882 109.797C134.516 108.417 135.667 107.293 136.978 106.547Z" fill="#510F42"/>
<path d="M160.841 117.429C160.841 117.429 160.781 116.652 160.74 115.536C160.72 114.977 160.7 114.319 160.719 113.681C160.719 113.282 160.758 112.903 160.778 112.564C160.896 111.127 161.034 109.95 161.034 109.95C161.054 109.611 161.351 109.31 161.689 109.328C162.027 109.346 162.325 109.643 162.305 109.982C162.305 109.982 162.366 111.158 162.387 112.614C162.407 112.973 162.407 113.372 162.368 113.751C162.348 114.389 162.269 115.048 162.23 115.626C162.132 116.724 162.033 117.522 162.033 117.522C162.013 117.861 161.716 118.162 161.378 118.144C161.12 118.066 160.861 117.788 160.841 117.429Z" fill="#510F42"/>
<path d="M161.285 152.086C161.285 152.086 161.224 151.309 161.184 150.192C161.164 149.634 161.143 148.976 161.163 148.338C161.162 147.939 161.202 147.56 161.221 147.221C161.339 145.784 161.477 144.607 161.477 144.607C161.497 144.268 161.795 143.967 162.132 143.985C162.47 144.002 162.768 144.3 162.749 144.639C162.749 144.639 162.809 145.815 162.83 147.271C162.85 147.63 162.851 148.028 162.811 148.408C162.792 149.046 162.713 149.704 162.674 150.283C162.575 151.38 162.476 152.179 162.476 152.179C162.457 152.518 162.159 152.819 161.821 152.801C161.523 152.703 161.265 152.425 161.285 152.086Z" fill="#510F42"/>
<path d="M160.33 98.2884C160.33 98.2884 160.27 97.511 160.23 96.3945C160.209 95.8362 160.189 95.1782 160.208 94.54C160.208 94.1411 160.248 93.762 160.267 93.4229C160.385 91.9863 160.523 90.8089 160.523 90.8089C160.543 90.4698 160.841 90.1688 161.178 90.1867C161.516 90.2046 161.814 90.5019 161.795 90.841C161.795 90.841 161.855 92.0173 161.876 93.4729C161.896 93.8317 161.896 94.2306 161.857 94.6097C161.838 95.248 161.759 95.9066 161.719 96.4851C161.621 97.5825 161.522 98.3808 161.522 98.3808C161.503 98.7199 161.205 99.0209 160.867 99.003C160.569 98.9051 160.311 98.6275 160.33 98.2884Z" fill="#510F42"/>
<path d="M156.709 115.281C156.709 115.281 156.649 114.803 156.609 114.185C156.588 113.826 156.568 113.467 156.568 113.068C156.588 112.829 156.588 112.629 156.647 112.41C156.765 111.571 156.864 110.873 156.864 110.873C156.884 110.534 157.182 110.233 157.519 110.251C157.857 110.269 158.155 110.566 158.135 110.905C158.135 110.905 158.235 111.602 158.256 112.46C158.256 112.659 158.276 112.918 158.276 113.118C158.277 113.517 158.197 113.876 158.178 114.215C158.099 114.874 157.98 115.313 157.98 115.313C157.96 115.652 157.663 115.953 157.325 115.935C156.987 115.917 156.729 115.64 156.709 115.281Z" fill="#510F42"/>
<path d="M163.356 132.929C163.356 132.929 163.296 132.451 163.256 131.833C163.236 131.474 163.215 131.115 163.215 130.716C163.235 130.477 163.235 130.278 163.254 130.038C163.373 129.2 163.472 128.501 163.472 128.501C163.491 128.162 163.789 127.861 164.127 127.879C164.464 127.897 164.763 128.194 164.743 128.533C164.743 128.533 164.843 129.231 164.863 130.088C164.863 130.288 164.883 130.547 164.884 130.746C164.884 131.145 164.805 131.504 164.785 131.844C164.706 132.502 164.587 132.942 164.587 132.942C164.568 133.281 164.27 133.582 163.932 133.564C163.634 133.566 163.376 133.288 163.356 132.929Z" fill="#510F42"/>
<path d="M165.667 116.683C165.667 116.683 165.588 116.444 165.528 116.065C165.508 115.906 165.468 115.687 165.468 115.487C165.468 115.388 165.488 115.248 165.507 115.108C165.586 114.649 165.705 114.309 165.705 114.309C165.725 113.97 166.023 113.669 166.36 113.687C166.698 113.705 166.996 114.002 166.976 114.341C166.976 114.341 167.096 114.7 167.156 115.178C167.156 115.278 167.196 115.397 167.176 115.537C167.176 115.736 167.117 115.956 167.077 116.136C166.998 116.495 166.899 116.695 166.899 116.695C166.879 117.034 166.582 117.335 166.244 117.317C165.946 117.319 165.648 117.022 165.667 116.683Z" fill="#510F42"/>
<path d="M165.711 147.952C165.711 147.952 165.632 147.713 165.572 147.334C165.552 147.175 165.512 146.956 165.512 146.756C165.512 146.657 165.531 146.517 165.531 146.417C165.61 145.958 165.749 145.578 165.749 145.578C165.769 145.239 166.067 144.938 166.404 144.956C166.742 144.974 167.04 145.271 167.02 145.61C167.02 145.61 167.14 145.969 167.2 146.447C167.2 146.547 167.24 146.666 167.22 146.806C167.22 147.005 167.161 147.225 167.121 147.405C167.042 147.764 166.943 147.964 166.943 147.964C166.923 148.303 166.625 148.604 166.288 148.586C165.97 148.628 165.692 148.291 165.711 147.952Z" fill="#510F42"/>
<path d="M94.3061 148.286C94.2862 148.226 94.2862 148.127 94.2662 148.067C94.1267 147.45 93.9673 146.773 93.8278 146.155C93.748 145.717 93.6484 145.319 93.5289 144.861C93.1303 143.068 92.7911 141.156 92.7898 139.461C92.8094 139.122 92.5113 138.825 92.1736 138.807C91.8359 138.789 91.5382 139.09 91.5186 139.429C91.4205 141.025 91.541 142.779 91.7807 144.493C91.8805 145.19 92.0201 145.907 92.1597 146.624C92.2194 146.803 92.2394 146.963 92.2992 147.142C93.0739 147.277 93.7694 147.671 94.3061 148.286Z" fill="#510F42"/>
<path d="M103.044 68.7437C103.084 68.7634 103.143 68.7431 103.183 68.7628C103.56 68.8003 103.918 68.7782 104.295 68.8158C104.931 68.8319 105.606 68.768 106.162 68.7446C107.235 68.6783 108.009 68.6137 108.009 68.6137C108.347 68.6316 108.645 68.3307 108.664 67.9915C108.684 67.6524 108.386 67.3551 108.048 67.3372C108.048 67.3372 107.253 67.2423 106.201 67.169C105.625 67.1326 105.009 67.0765 104.353 67.1004C104.016 67.0826 103.658 67.1047 103.34 67.1465C103.242 67.6456 103.123 68.1848 103.044 68.7437Z" fill="#510F42"/>
<path d="M103.735 64.053C103.934 64.0518 104.112 64.0906 104.271 64.0697C104.728 64.047 105.185 64.0243 105.602 63.9818C106.377 63.9173 106.953 63.854 106.953 63.854C107.29 63.8719 107.588 63.5709 107.608 63.2318C107.627 62.8926 107.329 62.5953 106.991 62.5774C106.991 62.5774 106.435 62.5011 105.641 62.4062C105.223 62.3489 104.786 62.3316 104.29 62.3346C104.151 62.3155 104.032 62.3561 103.893 62.337C103.913 62.8953 103.834 63.4542 103.735 64.053Z" fill="#510F42"/>
<path d="M159.42 129.783C159.42 129.783 159.341 129.544 159.281 129.165C159.261 129.006 159.221 128.787 159.221 128.587C159.221 128.488 159.24 128.348 159.26 128.208C159.339 127.749 159.458 127.409 159.458 127.409C159.478 127.07 159.776 126.769 160.113 126.787C160.451 126.805 160.749 127.102 160.729 127.441C160.729 127.441 160.849 127.8 160.909 128.278C160.909 128.378 160.949 128.497 160.929 128.637C160.929 128.836 160.87 129.056 160.83 129.236C160.751 129.595 160.652 129.795 160.652 129.795C160.632 130.134 160.334 130.435 159.997 130.417C159.659 130.399 159.401 130.122 159.42 129.783Z" fill="#510F42"/>
<path d="M165.355 98.1381C165.355 98.1381 165.295 97.6599 165.255 97.0419C165.235 96.6831 165.215 96.3242 165.214 95.9254C165.234 95.686 165.234 95.4866 165.253 95.2471C165.372 94.4088 165.471 93.7103 165.471 93.7103C165.49 93.3711 165.788 93.0702 166.126 93.0881C166.463 93.106 166.762 93.4033 166.742 93.7424C166.742 93.7424 166.842 94.4398 166.862 95.2972C166.862 95.4966 166.883 95.7557 166.883 95.9551C166.883 96.354 166.804 96.7134 166.784 97.0526C166.705 97.7111 166.586 98.1506 166.586 98.1506C166.567 98.4897 166.269 98.7907 165.931 98.7728C165.634 98.7746 165.335 98.4773 165.355 98.1381Z" fill="#510F42"/>
</g>
<mask id="mask1_4030_121828" style="mask-type:luminance" maskUnits="userSpaceOnUse" x="159" y="30" width="79" height="178">
<path d="M237.63 30.9476L237.63 207.823L159.703 207.823L159.703 30.9476L237.63 30.9476Z" fill="white"/>
</mask>
<g mask="url(#mask1_4030_121828)">
<path d="M200.866 116.843C200.866 116.843 204.48 116.525 209.35 116.207C212.021 116.048 214.849 115.889 217.834 115.889C219.562 115.889 221.29 115.889 223.019 116.048C229.617 116.366 234.959 116.843 234.959 116.843C236.53 116.843 237.63 118.114 237.63 119.544C237.63 120.974 236.373 122.245 234.959 122.245C234.959 122.245 229.617 122.722 223.019 123.04C221.29 123.199 219.562 123.199 217.834 123.199C214.849 123.199 211.864 123.04 209.35 122.881C204.48 122.563 200.866 122.245 200.866 122.245C199.295 122.245 198.195 120.974 198.195 119.544C198.195 118.114 199.295 116.843 200.866 116.843Z" fill="#510F42"/>
<path d="M184.527 163.242C184.527 163.242 186.726 167.374 189.397 173.094C190.811 176.114 192.539 179.609 193.953 183.105C194.896 185.171 195.682 187.237 196.31 189.303C199.295 197.248 201.495 203.922 201.495 203.922C202.123 205.352 201.495 206.941 200.081 207.576C198.667 208.212 197.096 207.576 196.467 206.146C196.467 206.146 193.325 199.949 189.711 192.163C188.769 190.256 187.826 188.19 187.041 186.124C185.627 182.629 184.213 178.974 183.113 175.796C180.913 169.757 179.499 165.308 179.499 165.308C178.871 163.878 179.499 162.289 180.913 161.653C182.327 161.177 183.898 161.812 184.527 163.242Z" fill="#510F42"/>
<path d="M179.499 73.4623C179.499 73.4623 180.913 69.0131 183.113 62.9747C184.213 59.7967 185.627 56.1419 187.041 52.646C187.826 50.5803 188.769 48.5145 189.711 46.6077C193.325 38.9804 196.467 32.6242 196.467 32.6242C197.096 31.1941 198.667 30.5585 200.081 31.1941C201.495 31.8297 202.123 33.4187 201.495 34.8489C201.495 34.8489 199.295 41.5228 196.31 49.468C195.525 51.5337 194.739 53.5994 193.953 55.6652C192.539 59.1611 190.811 62.6569 189.397 65.6761C186.726 71.3966 184.527 75.5281 184.527 75.5281C183.898 76.9582 182.327 77.5938 180.913 76.9582C179.499 76.4815 178.871 74.8925 179.499 73.4623Z" fill="#510F42"/>
<path d="M199.138 87.4453C199.138 87.4453 200.395 85.8563 202.438 83.9495C203.537 82.996 204.637 81.7248 205.894 80.7714C206.68 80.1358 207.465 79.6591 208.251 79.1824C211.236 77.1166 213.907 75.6865 213.907 75.6865C215.163 74.7331 216.892 74.892 217.677 76.1632C218.62 77.4344 218.463 79.1824 217.206 79.9769C217.206 79.9769 215.163 82.2015 212.493 84.744C211.864 85.3796 211.079 86.0152 210.45 86.6508C209.193 87.6042 207.779 88.5577 206.522 89.3522C204.166 90.7823 202.438 91.7357 202.438 91.7357C201.181 92.6891 199.452 92.5302 198.667 91.259C197.724 89.9878 197.881 88.3988 199.138 87.4453Z" fill="#510F42"/>
<path d="M202.438 147.034C202.438 147.034 204.166 147.988 206.522 149.418C207.779 150.212 209.193 151.007 210.45 152.119C211.236 152.755 211.864 153.39 212.493 154.026C215.163 156.568 217.206 158.793 217.206 158.793C218.463 159.746 218.62 161.494 217.677 162.607C216.735 163.878 215.006 164.037 213.907 163.083C213.907 163.083 211.236 161.653 208.251 159.588C207.465 159.111 206.68 158.475 205.894 157.998C204.637 156.886 203.38 155.774 202.438 154.82C200.395 152.914 199.138 151.325 199.138 151.325C197.881 150.371 197.724 148.623 198.667 147.511C199.61 146.399 201.338 146.081 202.438 147.034Z" fill="#510F42"/>
<path d="M165.988 179.133C165.988 179.133 166.302 181.675 166.616 185.012C166.774 186.76 166.931 188.826 166.931 190.891C166.931 192.163 166.931 193.275 166.774 194.387C166.459 198.837 165.988 202.65 165.988 202.65C165.988 204.239 164.731 205.352 163.317 205.352C161.903 205.352 160.646 204.08 160.646 202.65C160.646 202.65 160.175 198.995 159.861 194.387C159.704 193.275 159.704 192.004 159.704 190.891C159.704 188.826 159.861 186.76 160.018 185.012C160.332 181.675 160.646 179.133 160.646 179.133C160.646 177.544 161.903 176.431 163.317 176.431C164.731 176.431 165.988 177.544 165.988 179.133Z" fill="#510F42"/>
<path d="M160.646 59.6375C160.646 59.6375 160.332 57.0951 160.018 53.7581C159.861 52.0102 159.704 49.9444 159.704 47.8787C159.704 46.6075 159.704 45.4951 159.861 44.3828C160.175 39.9335 160.646 36.1198 160.646 36.1198C160.646 34.5308 161.903 33.4185 163.317 33.4185C164.731 33.4185 165.988 34.6897 165.988 36.1198C165.988 36.1198 166.459 39.7746 166.774 44.3828C166.931 45.4951 166.931 46.7664 166.931 47.8787C166.931 49.9444 166.774 52.0102 166.616 53.7581C166.302 57.0951 165.988 59.6375 165.988 59.6375C165.988 61.2265 164.731 62.3389 163.317 62.3389C161.903 62.3389 160.646 61.2265 160.646 59.6375Z" fill="#510F42"/>
</g>
<mask id="mask2_4030_121828" style="mask-type:luminance" maskUnits="userSpaceOnUse" x="51" y="100" width="18" height="48">
<path d="M51.1495 100.719H68.1846V147.837H51.1495V100.719Z" fill="white"/>
</mask>
<g mask="url(#mask2_4030_121828)">
<path d="M51.1495 102.843V145.712C51.1495 146.883 52.3447 147.837 53.8304 147.837H65.4887C66.9744 147.837 68.1846 146.883 68.1846 145.712V102.843C68.1846 101.672 66.9744 100.719 65.4887 100.719H53.8304C52.3447 100.719 51.1495 101.672 51.1495 102.843Z" fill="#510F42"/>
</g>
<mask id="mask3_4030_121828" style="mask-type:luminance" maskUnits="userSpaceOnUse" x="49" y="72" width="34" height="12">
<path d="M49.3383 72.8105H82.6836V83.684H49.3383V72.8105Z" fill="white"/>
</mask>
<g mask="url(#mask3_4030_121828)">
<path d="M81.6404 74.8515H79.3383C78.7627 74.8515 78.2951 74.3941 78.2951 73.831C78.2951 73.268 78.7627 72.8105 79.3383 72.8105H81.6404C82.216 72.8105 82.6836 73.268 82.6836 73.831C82.6836 74.3941 82.216 74.8515 81.6404 74.8515Z" fill="#510F42"/>
<path d="M74.5896 74.8515H59.9853C59.4098 74.8515 58.9422 74.3941 58.9422 73.831C58.9422 73.268 59.4098 72.8105 59.9853 72.8105H74.5896C75.1652 72.8105 75.6328 73.268 75.6328 73.831C75.6328 74.3941 75.1652 74.8515 74.5896 74.8515Z" fill="#510F42"/>
<path d="M55.5975 74.8515H50.3816C49.8061 74.8515 49.3385 74.3941 49.3385 73.831C49.3385 73.268 49.8061 72.8105 50.3816 72.8105H55.5975C56.173 72.8105 56.6406 73.268 56.6406 73.831C56.6406 74.3941 56.173 74.8515 55.5975 74.8515Z" fill="#510F42"/>
<path d="M81.6404 79.25H50.3815C49.8059 79.25 49.3383 78.7925 49.3383 78.2295C49.3383 77.6664 49.8059 77.209 50.3815 77.209H81.6404C82.216 77.209 82.6836 77.6664 82.6836 78.2295C82.6836 78.7925 82.216 79.25 81.6404 79.25Z" fill="#510F42"/>
<path d="M81.6404 83.684H71.3527C70.7771 83.684 70.3095 83.2266 70.3095 82.6636C70.3095 82.1005 70.7771 81.6431 71.3527 81.6431H81.6404C82.216 81.6431 82.6836 82.1005 82.6836 82.6636C82.6836 83.2266 82.216 83.684 81.6404 83.684Z" fill="#510F42"/>
<path d="M66.8201 83.684H60.1654C59.5899 83.684 59.1223 83.2266 59.1223 82.6636C59.1223 82.1005 59.5899 81.6431 60.1654 81.6431H66.8201C67.3957 81.6431 67.8633 82.1005 67.8633 82.6636C67.8633 83.2266 67.3957 83.684 66.8201 83.684Z" fill="#510F42"/>
</g>
<mask id="mask4_4030_121828" style="mask-type:luminance" maskUnits="userSpaceOnUse" x="52" y="42" width="26" height="26">
<path d="M77.6087 42.0024H52.2373V67.3739H77.6087V42.0024Z" fill="white"/>
</mask>
<g mask="url(#mask4_4030_121828)">
<path d="M64.923 67.3739C71.9291 67.3739 77.6087 61.6943 77.6087 54.6882C77.6087 47.682 71.9291 42.0024 64.923 42.0024C57.9169 42.0024 52.2373 47.682 52.2373 54.6882C52.2373 61.6943 57.9169 67.3739 64.923 67.3739Z" fill="white"/>
<path d="M64.923 67.3739C71.9291 67.3739 77.6087 61.6943 77.6087 54.6882C77.6087 47.682 71.9291 42.0024 64.923 42.0024C57.9169 42.0024 52.2373 47.682 52.2373 54.6882C52.2373 61.6943 57.9169 67.3739 64.923 67.3739Z" fill="white"/>
<path d="M56.8037 64.4382C59.0146 66.2866 61.8418 67.374 64.9226 67.374C67.6047 67.374 70.1056 66.5404 72.1715 65.0906L70.1781 62.1547L61.0081 61.0674L56.8037 64.4382Z" fill="white"/>
<path d="M69.5265 45.9167C69.0915 45.9167 68.6929 45.9529 68.2942 46.0979C67.8592 46.2429 67.388 46.1704 66.9893 45.8804C65.9745 45.1918 64.7784 44.7568 63.4373 44.7568C60.0666 44.7568 57.3482 47.4752 57.3482 50.846C57.3482 50.9185 57.3482 50.991 57.3482 51.0634C57.3482 51.2809 57.3482 51.4984 57.312 51.7883C57.312 52.0058 57.3844 52.2233 57.4569 52.4408C57.4932 52.5857 57.5294 52.6945 57.5657 52.8394C58.3268 55.884 56.4783 60.0159 54.0137 61.1395C55.2822 63.278 57.167 65.0177 59.4142 66.1051C60.0666 65.0177 60.6827 63.6767 60.864 62.2631C60.864 62.2631 61.4439 60.2334 61.3351 58.6024C61.2627 57.7325 61.0814 56.9714 60.9002 56.2827C61.7701 56.7539 62.35 57.0076 63.4011 57.0076C65.5758 57.0076 67.4968 55.8478 68.5841 54.1443C68.8741 54.2168 69.2003 54.253 69.5265 54.253C71.8462 54.253 73.6947 52.3683 73.6947 50.0848C73.6947 47.7652 71.8099 45.9167 69.5265 45.9167Z" fill="#510F42"/>
<path d="M69.6348 58.3128C69.6348 58.3128 67.6051 57.3704 65.7929 58.8927C63.9806 60.3788 66.409 63.4233 66.409 63.4233C68.2938 63.7133 70.2872 64.8006 71.4833 65.5618C71.882 65.3081 72.2445 65.0543 72.6069 64.8006C72.3532 61.2486 69.6348 58.3128 69.6348 58.3128Z" fill="#510F42"/>
<path d="M71.4468 51.0638C71.4468 51.0638 71.7005 58.5665 66.4088 61.5748V63.4233C66.4088 63.4233 63.7629 64.7644 60.8995 62.2272C60.8995 62.2272 61.3707 58.3128 60.4283 55.9206C59.486 53.5284 60.8995 51.3175 63.2192 51.8612C68.076 52.9485 67.3874 50.0852 71.4468 51.0638Z" fill="#E3A6D6"/>
<path d="M69.2722 55.0145C69.2359 55.0145 69.1634 55.0507 69.1272 55.0507C68.9822 55.1595 68.8372 55.2319 68.8372 55.2319C68.6923 55.5219 68.3298 55.5944 68.0761 55.4494C67.7861 55.3044 67.7136 54.942 67.8586 54.6883C67.8586 54.6883 67.9674 54.4346 68.1123 54.1446C68.1848 54.0359 68.2936 53.9271 68.4023 53.8184C68.6198 53.6009 68.946 53.4922 69.2722 53.4922C69.4172 53.4922 69.5984 53.5284 69.7796 53.6009C69.8883 53.6372 69.9971 53.7097 70.0696 53.7821C70.287 53.9634 70.5045 54.2171 70.6495 54.652C70.8307 54.9057 70.7582 55.2682 70.4683 55.4494C70.2145 55.6306 69.8521 55.5581 69.6709 55.2682C69.5259 55.1232 69.3809 55.087 69.2722 55.0145ZM69.2722 55.0145C69.2359 55.0507 69.2722 55.0507 69.2722 55.0145C69.2359 55.0145 69.2359 55.0145 69.2722 55.0145Z" fill="#510F42"/>
<path d="M67.2061 57.8779C67.2061 57.8779 66.9161 58.0229 66.5537 58.0954C66.4812 58.0954 66.4087 58.0954 66.3362 58.0954C66.3 58.0954 66.2637 58.0954 66.1912 58.0954C65.9738 58.0591 65.7201 58.0229 65.4663 57.8416C65.2489 57.6242 64.8864 57.6242 64.669 57.8416C64.4515 58.0591 64.4515 58.4216 64.669 58.639C64.9952 59.1102 65.3576 59.3639 65.7201 59.5089C65.9375 59.6176 66.155 59.6539 66.3725 59.6539C66.7712 59.6539 67.1336 59.5089 67.3873 59.3277C67.8585 59.0015 68.076 58.6028 68.076 58.6028C68.2935 58.3491 68.2572 57.9866 68.0035 57.8054C67.7498 57.5879 67.4236 57.6242 67.2061 57.8779Z" fill="#510F42"/>
<path d="M63.4733 55.0145C63.4371 55.0145 63.3646 55.0507 63.3284 55.0507C63.1834 55.1595 63.0384 55.2319 63.0384 55.2319C62.8934 55.5219 62.531 55.5944 62.2773 55.4494C61.9873 55.3044 61.9148 54.942 62.0598 54.6883C62.0598 54.6883 62.1685 54.4346 62.3135 54.1446C62.386 54.0359 62.4947 53.9271 62.6035 53.8184C62.8209 53.6009 63.1471 53.4922 63.4733 53.4922C63.6183 53.4922 63.7995 53.5284 63.9808 53.6009C64.0895 53.6372 64.1982 53.7097 64.2707 53.7821C64.4882 53.9634 64.7057 54.2171 64.8507 54.652C65.0319 54.9057 64.9594 55.2682 64.6694 55.4494C64.4157 55.6306 64.0533 55.5581 63.872 55.2682C63.7633 55.1232 63.6183 55.087 63.4733 55.0145C63.5096 55.0145 63.5096 55.0145 63.4733 55.0145ZM63.4733 55.0145C63.5096 55.0145 63.5096 55.0145 63.4733 55.0145C63.4371 55.0507 63.5096 55.0507 63.4733 55.0145Z" fill="#510F42"/>
</g>
<mask id="mask5_4030_121828" style="mask-type:luminance" maskUnits="userSpaceOnUse" x="128" y="0" width="31" height="38">
<path d="M128.252 0H158.415V37.2931H128.252V0Z" fill="white"/>
</mask>
<g mask="url(#mask5_4030_121828)">
<mask id="mask6_4030_121828" style="mask-type:luminance" maskUnits="userSpaceOnUse" x="128" y="0" width="58" height="38">
<path d="M128.252 0H185.562V37.2931H128.252V0Z" fill="white"/>
</mask>
<g mask="url(#mask6_4030_121828)">
<path d="M159.541 19.5696V34.5502C159.541 35.2886 159.861 35.9744 160.339 36.5018C160.872 37.0293 161.563 37.2931 162.308 37.2931H182.795C183.54 37.2931 184.232 36.9766 184.764 36.5018C185.296 35.9744 185.562 35.2886 185.562 34.5502V2.74291C185.562 2.00444 185.243 1.31871 184.764 0.791225C184.232 0.263742 183.54 0 182.795 0H162.308C161.563 0 160.872 0.31649 160.339 0.791225C159.807 1.31871 159.541 2.00444 159.541 2.74291V17.5124H155.284C155.018 17.5124 154.752 17.6179 154.539 17.8289L137.617 34.6029H129.263C128.678 34.6029 128.252 35.0776 128.252 35.6051C128.252 36.1853 128.731 36.6073 129.263 36.6073H138.043C138.309 36.6073 138.575 36.5018 138.788 36.2908L155.71 19.5169H159.541V19.5696Z" fill="#510F42"/>
</g>
</g>
<mask id="mask7_4030_121828" style="mask-type:luminance" maskUnits="userSpaceOnUse" x="158" y="7" width="24" height="24">
<path d="M181.175 7.95215H158.415V30.7119H181.175V7.95215Z" fill="white"/>
</mask>
<g mask="url(#mask7_4030_121828)">
<path d="M169.794 30.3692C175.9 30.3692 180.849 25.4201 180.849 19.315C180.849 13.2099 175.9 8.26074 169.794 8.26074C163.689 8.26074 158.74 13.2099 158.74 19.315C158.74 25.4201 163.689 30.3692 169.794 30.3692Z" fill="white"/>
<path d="M169.795 7.95215C163.522 7.95215 158.415 13.0422 158.415 19.332C158.415 25.6218 163.522 30.7119 169.795 30.7119C176.085 30.7119 181.175 25.6218 181.175 19.332C181.175 13.0422 176.068 7.95215 169.795 7.95215ZM169.795 30.0264C163.882 30.0264 159.083 25.2276 159.083 19.3149C159.083 13.4021 163.882 8.60341 169.795 8.60341C175.708 8.60341 180.506 13.4021 180.506 19.3149C180.506 25.2276 175.708 30.0264 169.795 30.0264Z" fill="#510F42"/>
</g>
<mask id="mask8_4030_121828" style="mask-type:luminance" maskUnits="userSpaceOnUse" x="158" y="8" width="23" height="23">
<path d="M180.626 8.50049H158.963V30.1634H180.626V8.50049Z" fill="white"/>
</mask>
<g mask="url(#mask8_4030_121828)">
<path d="M169.794 29.837C175.605 29.837 180.315 25.1263 180.315 19.3154C180.315 13.5046 175.605 8.79395 169.794 8.79395C163.983 8.79395 159.272 13.5046 159.272 19.3154C159.272 25.1263 163.983 29.837 169.794 29.837Z" fill="white"/>
<path d="M169.794 8.50049C163.824 8.50049 158.963 13.3453 158.963 19.3319C158.963 25.3186 163.824 30.1634 169.794 30.1634C175.781 30.1634 180.626 25.3186 180.626 19.3319C180.626 13.3453 175.765 8.50049 169.794 8.50049ZM169.794 29.5109C164.167 29.5109 159.599 24.9434 159.599 19.3156C159.599 13.6878 164.167 9.12036 169.794 9.12036C175.422 9.12036 179.99 13.6878 179.99 19.3156C179.99 24.9434 175.422 29.5109 169.794 29.5109Z" fill="#510F42"/>
</g>
<mask id="mask9_4030_121828" style="mask-type:luminance" maskUnits="userSpaceOnUse" x="164" y="15" width="12" height="10">
<path d="M175.142 15.6304H164.447V24.6794H175.142V15.6304Z" fill="white"/>
</mask>
<g mask="url(#mask9_4030_121828)">
<path d="M169.837 16.9835C169.879 16.9835 169.921 16.9835 169.921 16.9412C170.426 16.1378 171.31 15.6304 172.321 15.6304C173.878 15.6304 175.142 16.8989 175.142 18.4635V18.5058V18.5481C175.015 21.7195 169.794 24.6794 169.794 24.6794C169.794 24.6794 165.037 21.9309 164.489 19.0132C164.447 18.8441 164.447 18.6749 164.447 18.4635C164.447 16.8989 165.71 15.6304 167.268 15.6304C168.279 15.6304 169.163 16.1378 169.668 16.9412C169.71 16.9835 169.71 16.9835 169.752 16.9835C169.794 16.9835 169.794 16.9835 169.837 16.9835Z" fill="#510F42"/>
</g>
<mask id="mask10_4030_121828" style="mask-type:luminance" maskUnits="userSpaceOnUse" x="171" y="4" width="21" height="21">
<path d="M182.668 24.7376L191.016 16.8027L179.68 4.87786L171.333 12.8127L182.668 24.7376Z" fill="white"/>
</mask>
<g mask="url(#mask10_4030_121828)">
<path d="M178.631 9.52997C179.006 9.77836 179.356 10.0498 179.73 10.3457C180.056 10.6402 180.406 10.9592 180.683 11.2999C181.611 12.3246 182.298 13.4851 182.77 14.7107C183.108 15.5522 183.327 16.414 183.426 17.2963C183.734 19.5153 183.351 21.786 182.261 23.7987C182.113 24.0321 182.202 24.3198 182.436 24.4692C182.671 24.6185 182.958 24.5316 183.106 24.2982C184.413 22.1253 184.967 19.6457 184.689 17.166C184.591 16.1888 184.328 15.1831 183.968 14.2697C183.428 12.9233 182.6 11.6637 181.507 10.563C181.159 10.1965 180.762 9.87616 180.389 9.58027C179.992 9.25994 179.569 9.01019 179.147 8.76044C178.913 8.61114 178.626 8.69799 178.502 8.90835C178.356 9.09428 178.42 9.40509 178.631 9.52997Z" fill="#510F42"/>
<path d="M178.62 6.79642C179.231 7.09911 179.794 7.44794 180.355 7.84428C180.777 8.14153 181.15 8.43742 181.547 8.75775C181.944 9.07807 182.341 9.3984 182.689 9.76487C182.921 10.0092 183.155 10.206 183.34 10.4489C183.572 10.6933 183.756 10.9362 183.989 11.1805C184.15 11.399 184.434 11.4547 184.652 11.2946C184.869 11.1344 184.923 10.8508 184.761 10.6322C184.578 10.3418 184.394 10.0513 184.186 9.78394C183.978 9.51655 183.77 9.24917 183.539 8.95736C183.168 8.51895 182.772 8.15113 182.377 7.7833C182.097 7.53763 181.793 7.31503 181.488 7.13993C180.691 6.64179 179.867 6.26173 178.996 5.92781C178.76 5.826 178.473 5.91285 178.372 6.19515C178.248 6.40552 178.385 6.69461 178.62 6.79642Z" fill="#510F42"/>
<path d="M185.826 15.1543C185.845 15.3688 185.84 15.6063 185.882 15.8452C185.901 16.0596 185.896 16.2971 185.962 16.5129C185.983 16.6324 186.028 16.7762 186.049 16.8957C186.113 17.2065 186.202 17.4942 186.266 17.805C186.284 18.067 186.493 18.2869 186.755 18.2706C187.017 18.2543 187.235 18.0467 187.217 17.7847C187.249 17.4291 187.279 17.121 187.264 16.7641C187.267 16.6216 187.247 16.4546 187.225 16.3352C187.183 16.0963 187.141 15.8575 187.051 15.6172C186.961 15.377 186.895 15.1612 186.781 14.944C186.715 14.6807 186.457 14.5545 186.194 14.6183C185.885 14.6332 185.736 14.9141 185.826 15.1543Z" fill="#510F42"/>
</g>
<mask id="mask11_4030_121828" style="mask-type:luminance" maskUnits="userSpaceOnUse" x="38" y="169" width="52" height="18">
<path d="M89.5692 169.584H38.4639V186.982H89.5692V169.584Z" fill="white"/>
</mask>
<g mask="url(#mask11_4030_121828)">
<path d="M77.455 179.922H52.055C51.4951 179.922 51.0879 180.376 51.0879 180.88C51.0879 181.435 51.546 181.839 52.055 181.839H77.455C78.0149 181.839 78.4221 181.385 78.4221 180.88C78.4221 180.326 78.0149 179.922 77.455 179.922Z" fill="#510F42"/>
<path d="M47.6262 179.922H39.431C38.8711 179.922 38.4639 180.376 38.4639 180.88C38.4639 181.435 38.922 181.839 39.431 181.839H47.6262C48.1861 181.839 48.5933 181.385 48.5933 180.88C48.5933 180.326 48.1861 179.922 47.6262 179.922Z" fill="#510F42"/>
<path d="M88.602 174.728H39.431C38.8711 174.728 38.4639 175.182 38.4639 175.686C38.4639 176.19 38.922 176.644 39.431 176.644H88.602C89.162 176.644 89.5692 176.19 89.5692 175.686C89.5692 175.182 89.1111 174.728 88.602 174.728Z" fill="#510F42"/>
<path d="M68.9039 185.066H39.4828C38.9228 185.066 38.5156 185.52 38.5156 186.024C38.5156 186.528 38.9737 186.982 39.4828 186.982H68.9039C69.4639 186.982 69.8711 186.528 69.8711 186.024C69.8711 185.52 69.413 185.066 68.9039 185.066Z" fill="#510F42"/>
<path d="M88.6024 169.584H67.3255C66.7656 169.584 66.3584 170.038 66.3584 170.543C66.3584 171.047 66.8165 171.501 67.3255 171.501H88.6024C89.1624 171.501 89.5696 171.047 89.5696 170.543C89.5696 170.038 89.1115 169.584 88.6024 169.584Z" fill="#510F42"/>
<path d="M62.8975 169.584H39.4828C38.9228 169.584 38.5156 170.038 38.5156 170.543C38.5156 171.047 38.9737 171.501 39.4828 171.501H62.8975C63.4575 171.501 63.8647 171.047 63.8647 170.543C63.8647 170.038 63.4066 169.584 62.8975 169.584Z" fill="#510F42"/>
</g>
<mask id="mask12_4030_121828" style="mask-type:luminance" maskUnits="userSpaceOnUse" x="80" y="169" width="52" height="18">
<path d="M131.976 169.584H80.8711V186.982H131.976V169.584Z" fill="white"/>
</mask>
<g mask="url(#mask12_4030_121828)">
<path d="M119.862 179.922H94.4623C93.9023 179.922 93.4951 180.376 93.4951 180.88C93.4951 181.435 93.9532 181.839 94.4623 181.839H119.862C120.422 181.839 120.829 181.385 120.829 180.88C120.829 180.326 120.422 179.922 119.862 179.922Z" fill="#510F42"/>
<path d="M90.0334 179.922H81.8382C81.2783 179.922 80.8711 180.376 80.8711 180.88C80.8711 181.435 81.3292 181.839 81.8382 181.839H90.0334C90.5933 181.839 91.0005 181.385 91.0005 180.88C91.0005 180.326 90.5933 179.922 90.0334 179.922Z" fill="#510F42"/>
<path d="M131.009 174.728H81.8382C81.2783 174.728 80.8711 175.182 80.8711 175.686C80.8711 176.19 81.3292 176.644 81.8382 176.644H131.009C131.569 176.644 131.976 176.19 131.976 175.686C131.976 175.182 131.518 174.728 131.009 174.728Z" fill="#510F42"/>
<path d="M111.31 185.066H81.889C81.3291 185.066 80.9219 185.52 80.9219 186.024C80.9219 186.528 81.38 186.982 81.889 186.982H111.31C111.87 186.982 112.277 186.528 112.277 186.024C112.277 185.52 111.819 185.066 111.31 185.066Z" fill="#510F42"/>
<path d="M131.01 169.584H109.733C109.173 169.584 108.766 170.038 108.766 170.543C108.766 171.047 109.224 171.501 109.733 171.501H131.01C131.57 171.501 131.977 171.047 131.977 170.543C131.977 170.038 131.519 169.584 131.01 169.584Z" fill="#510F42"/>
<path d="M105.304 169.584H81.889C81.3291 169.584 80.9219 170.038 80.9219 170.543C80.9219 171.047 81.38 171.501 81.889 171.501H105.304C105.864 171.501 106.271 171.047 106.271 170.543C106.271 170.038 105.813 169.584 105.304 169.584Z" fill="#510F42"/>
</g>
<path d="M9.5142 35.1157C7.76992 35.1157 6.34277 36.5429 6.34277 38.2872V82.6871C6.34277 84.4314 7.76992 85.8586 9.5142 85.8586H41.2285C42.9728 85.8586 44.3999 84.4314 44.3999 82.6871V47.8014L31.7142 35.1157H9.5142Z" fill="#E2E5E7"/>
<path d="M34.8853 47.8014H44.3996L31.7139 35.1157V44.63C31.7139 46.3743 33.141 47.8014 34.8853 47.8014Z" fill="#B0B7BD"/>
<path d="M44.4 57.3156L34.8857 47.8013H44.4V57.3156Z" fill="#CAD1D8"/>
<path d="M38.0571 76.3442C38.0571 77.2164 37.3436 77.9299 36.4714 77.9299H1.58571C0.713571 77.9299 0 77.2164 0 76.3442V60.4871C0 59.6149 0.713571 58.9014 1.58571 58.9014H36.4714C37.3436 58.9014 38.0571 59.6149 38.0571 60.4871V76.3442Z" fill="#F15642"/>
<path d="M6.91211 65.1605C6.91211 64.7418 7.24194 64.2852 7.77315 64.2852H10.702C12.3511 64.2852 13.8353 65.3888 13.8353 67.5042C13.8353 69.5085 12.3511 70.6248 10.702 70.6248H8.58504V72.2994C8.58504 72.8575 8.22984 73.1731 7.77315 73.1731C7.35452 73.1731 6.91211 72.8575 6.91211 72.2994V65.1605ZM8.58504 65.882V69.0407H10.702C11.5519 69.0407 12.2243 68.2907 12.2243 67.5042C12.2243 66.6177 11.5519 65.882 10.702 65.882H8.58504Z" fill="white"/>
<path d="M16.3187 73.1732C15.9 73.1732 15.4434 72.9448 15.4434 72.3882V65.1859C15.4434 64.7308 15.9 64.3994 16.3187 64.3994H19.2221C25.0163 64.3994 24.8895 73.1732 19.3363 73.1732H16.3187ZM17.1179 65.9471V71.6271H19.2221C22.6457 71.6271 22.7979 65.9471 19.2221 65.9471H17.1179Z" fill="white"/>
<path d="M26.9448 66.0487V68.0641H30.1781C30.6347 68.0641 31.0914 68.5208 31.0914 68.9632C31.0914 69.3818 30.6347 69.7244 30.1781 69.7244H26.9448V72.3868C26.9448 72.8308 26.6292 73.1717 26.1852 73.1717C25.6271 73.1717 25.2861 72.8308 25.2861 72.3868V65.1845C25.2861 64.7294 25.6286 64.3979 26.1852 64.3979H30.6363C31.1945 64.3979 31.5243 64.7294 31.5243 65.1845C31.5243 65.5904 31.1945 66.0471 30.6363 66.0471H26.9448V66.0487Z" fill="white"/>
<path d="M36.4713 77.93H6.34277V79.5157H36.4713C37.3435 79.5157 38.0571 78.8021 38.0571 77.93V76.3442C38.0571 77.2164 37.3435 77.93 36.4713 77.93Z" fill="#CAD1D8"/>
</svg>
