<?xml version="1.0" encoding="utf-8"?>
<!-- Generator: Adobe Illustrator 28.0.0, SVG Export Plug-In . SVG Version: 6.00 Build 0)  -->
<svg version="1.1" id="Ebene_1" xmlns="http://www.w3.org/2000/svg" xmlns:xlink="http://www.w3.org/1999/xlink" x="0px" y="0px"
	 viewBox="0 0 32 32" style="enable-background:new 0 0 32 32;" xml:space="preserve">
<style type="text/css">
	.st0{fill:#921E7F;}
	.st1{fill:#FFFFFF;}
</style>
<path class="st0" d="M27.3,31H4.7C2.7,31,1,29.3,1,27.3V4.7C1,2.7,2.7,1,4.7,1h22.6C29.3,1,31,2.7,31,4.7v22.6
	C31,29.3,29.3,31,27.3,31z"/>
<g>
	<path class="st1" d="M25,13.3v6c0,0.3-0.1,0.6-0.4,0.9c-0.3,0.3-0.6,0.4-0.9,0.4c-0.4,0-0.7-0.1-0.9-0.4c-0.2-0.2-0.4-0.5-0.4-0.9
		v-6c0-0.7-0.2-1.3-0.8-1.8c-0.5-0.5-1.1-0.8-1.8-0.8c-0.7,0-1.3,0.3-1.8,0.8c-0.5,0.5-0.8,1.1-0.8,1.8v6c0,0.3-0.1,0.6-0.4,0.9
		s-0.6,0.4-0.9,0.4c-0.3,0-0.7-0.1-0.9-0.4c-0.2-0.2-0.4-0.5-0.4-0.9v-6c0-0.7-0.3-1.3-0.8-1.8c-0.5-0.5-1.1-0.8-1.8-0.8
		c-0.7,0-1.3,0.3-1.8,0.8c-0.5,0.5-0.8,1.1-0.8,1.8v6c0,0.3-0.1,0.6-0.4,0.9c-0.2,0.3-0.5,0.4-0.9,0.4c-0.3,0-0.6-0.1-0.9-0.4
		C7.1,19.9,7,19.6,7,19.3v-6c0-1.4,0.5-2.6,1.5-3.6c1-1,2.2-1.5,3.6-1.5s2.6,0.5,3.6,1.5c0.1,0.1,0.2,0.2,0.2,0.2
		c0.1-0.1,0.2-0.2,0.2-0.2c1-1,2.2-1.5,3.6-1.5c1.4,0,2.6,0.5,3.6,1.5C24.5,10.7,25,11.9,25,13.3z"/>
	<g>
		<path class="st1" d="M24.2,22.8c0,0.1,0,0.1,0,0.2c-1.8,1.3-4.8,2-8.2,2s-6.4-0.7-8.2-2c0,0-0.1-0.1,0-0.2l0,0
			c0-0.1,0.1-0.1,0.1-0.1c2.1,1,5,1.6,8.1,1.6s6-0.6,8.1-1.6C24.1,22.7,24.1,22.7,24.2,22.8L24.2,22.8z"/>
	</g>
</g>
</svg>
